<svg width="115" height="46" viewBox="0 0 115 46" fill="none" xmlns="http://www.w3.org/2000/svg">
<rect x="0.5" y="0.5" width="114" height="45" rx="22.5" stroke="#C1B6AD"/>
<rect x="8" y="8" width="30" height="30" rx="15" fill="#C1B6AD"/>
<path d="M15 31.12H31V15.12H15V31.12Z" fill="#403F3D"/>
<path d="M57.108 21.2898H54.983C54.9223 20.9413 54.8106 20.6326 54.6477 20.3636C54.4848 20.0909 54.2822 19.8598 54.0398 19.6705C53.7973 19.4811 53.5208 19.339 53.2102 19.2443C52.9034 19.1458 52.572 19.0966 52.2159 19.0966C51.5833 19.0966 51.0227 19.2557 50.5341 19.5739C50.0455 19.8883 49.6629 20.3504 49.3864 20.9602C49.1098 21.5663 48.9716 22.3068 48.9716 23.1818C48.9716 24.072 49.1098 24.822 49.3864 25.4318C49.6667 26.0379 50.0492 26.4962 50.5341 26.8068C51.0227 27.1136 51.5814 27.267 52.2102 27.267C52.5587 27.267 52.8845 27.2216 53.1875 27.1307C53.4943 27.036 53.7689 26.8977 54.0114 26.7159C54.2576 26.5341 54.464 26.3106 54.6307 26.0455C54.8011 25.7803 54.9186 25.4773 54.983 25.1364L57.108 25.1477C57.0284 25.7008 56.8561 26.2197 56.5909 26.7045C56.3295 27.1894 55.9867 27.6174 55.5625 27.9886C55.1383 28.3561 54.642 28.6439 54.0739 28.8523C53.5057 29.0568 52.875 29.1591 52.1818 29.1591C51.1591 29.1591 50.2462 28.9223 49.4432 28.4489C48.6402 27.9754 48.0076 27.2917 47.5455 26.3977C47.0833 25.5038 46.8523 24.4318 46.8523 23.1818C46.8523 21.928 47.0852 20.8561 47.5511 19.9659C48.017 19.072 48.6515 18.3883 49.4545 17.9148C50.2576 17.4413 51.1667 17.2045 52.1818 17.2045C52.8295 17.2045 53.4318 17.2955 53.9886 17.4773C54.5455 17.6591 55.0417 17.9261 55.4773 18.2784C55.9129 18.6269 56.2708 19.0549 56.5511 19.5625C56.8352 20.0663 57.0208 20.642 57.108 21.2898ZM62.7543 29.1705C61.902 29.1705 61.1634 28.983 60.5384 28.608C59.9134 28.233 59.4285 27.7083 59.0838 27.0341C58.7429 26.3598 58.5724 25.572 58.5724 24.6705C58.5724 23.7689 58.7429 22.9792 59.0838 22.3011C59.4285 21.6231 59.9134 21.0966 60.5384 20.7216C61.1634 20.3466 61.902 20.1591 62.7543 20.1591C63.6065 20.1591 64.3452 20.3466 64.9702 20.7216C65.5952 21.0966 66.0781 21.6231 66.419 22.3011C66.7637 22.9792 66.9361 23.7689 66.9361 24.6705C66.9361 25.572 66.7637 26.3598 66.419 27.0341C66.0781 27.7083 65.5952 28.233 64.9702 28.608C64.3452 28.983 63.6065 29.1705 62.7543 29.1705ZM62.7656 27.5227C63.2277 27.5227 63.6141 27.3958 63.9247 27.142C64.2353 26.8845 64.4664 26.5398 64.6179 26.108C64.7732 25.6761 64.8509 25.1951 64.8509 24.6648C64.8509 24.1307 64.7732 23.6477 64.6179 23.2159C64.4664 22.7803 64.2353 22.4337 63.9247 22.1761C63.6141 21.9186 63.2277 21.7898 62.7656 21.7898C62.2921 21.7898 61.8982 21.9186 61.5838 22.1761C61.2732 22.4337 61.0402 22.7803 60.8849 23.2159C60.7334 23.6477 60.6577 24.1307 60.6577 24.6648C60.6577 25.1951 60.7334 25.6761 60.8849 26.108C61.0402 26.5398 61.2732 26.8845 61.5838 27.142C61.8982 27.3958 62.2921 27.5227 62.7656 27.5227ZM73.1023 20.2727V21.8636H67.9432V20.2727H73.1023ZM69.233 29V19.4489C69.233 18.8617 69.3542 18.3731 69.5966 17.983C69.8428 17.5928 70.1723 17.3011 70.5852 17.108C70.9981 16.9148 71.4564 16.8182 71.9602 16.8182C72.3163 16.8182 72.6326 16.8466 72.9091 16.9034C73.1856 16.9602 73.3902 17.0114 73.5227 17.0568L73.1136 18.6477C73.0265 18.6212 72.9167 18.5947 72.7841 18.5682C72.6515 18.5379 72.5038 18.5227 72.3409 18.5227C71.9583 18.5227 71.6875 18.6155 71.5284 18.8011C71.3731 18.983 71.2955 19.2443 71.2955 19.5852V29H69.233ZM79.1335 20.2727V21.8636H73.9744V20.2727H79.1335ZM75.2642 29V19.4489C75.2642 18.8617 75.3854 18.3731 75.6278 17.983C75.8741 17.5928 76.2036 17.3011 76.6165 17.108C77.0294 16.9148 77.4877 16.8182 77.9915 16.8182C78.3475 16.8182 78.6638 16.8466 78.9403 16.9034C79.2169 16.9602 79.4214 17.0114 79.554 17.0568L79.1449 18.6477C79.0578 18.6212 78.9479 18.5947 78.8153 18.5682C78.6828 18.5379 78.535 18.5227 78.3722 18.5227C77.9896 18.5227 77.7188 18.6155 77.5597 18.8011C77.4044 18.983 77.3267 19.2443 77.3267 19.5852V29H75.2642ZM84.2798 29.1705C83.4048 29.1705 82.6491 28.9886 82.0128 28.625C81.3802 28.2576 80.8935 27.7386 80.5526 27.0682C80.2116 26.3939 80.0412 25.6004 80.0412 24.6875C80.0412 23.7898 80.2116 23.0019 80.5526 22.3239C80.8973 21.642 81.3783 21.1117 81.9957 20.733C82.6132 20.3504 83.3385 20.1591 84.1719 20.1591C84.7098 20.1591 85.2173 20.2462 85.6946 20.4205C86.1757 20.5909 86.5999 20.8561 86.9673 21.2159C87.3385 21.5758 87.6302 22.0341 87.8423 22.5909C88.0545 23.1439 88.1605 23.803 88.1605 24.5682V25.1989H81.0071V23.8125H86.1889C86.1851 23.4186 86.0999 23.0682 85.9332 22.7614C85.7666 22.4508 85.5336 22.2064 85.2344 22.0284C84.9389 21.8504 84.5942 21.7614 84.2003 21.7614C83.7798 21.7614 83.4105 21.8636 83.0923 22.0682C82.7741 22.2689 82.526 22.5341 82.348 22.8636C82.1738 23.1894 82.0848 23.5473 82.081 23.9375V25.1477C82.081 25.6553 82.1738 26.0909 82.3594 26.4545C82.545 26.8144 82.8045 27.0909 83.1378 27.2841C83.4711 27.4735 83.8613 27.5682 84.3082 27.5682C84.6075 27.5682 84.8783 27.5265 85.1207 27.4432C85.3632 27.3561 85.5734 27.2292 85.7514 27.0625C85.9295 26.8958 86.0639 26.6894 86.1548 26.4432L88.0753 26.6591C87.9541 27.1667 87.723 27.6098 87.3821 27.9886C87.045 28.3636 86.6132 28.6553 86.0866 28.8636C85.5601 29.0682 84.9579 29.1705 84.2798 29.1705ZM93.7642 29.1705C92.8892 29.1705 92.1335 28.9886 91.4972 28.625C90.8646 28.2576 90.3778 27.7386 90.0369 27.0682C89.696 26.3939 89.5256 25.6004 89.5256 24.6875C89.5256 23.7898 89.696 23.0019 90.0369 22.3239C90.3816 21.642 90.8627 21.1117 91.4801 20.733C92.0975 20.3504 92.8229 20.1591 93.6562 20.1591C94.1941 20.1591 94.7017 20.2462 95.179 20.4205C95.66 20.5909 96.0843 20.8561 96.4517 21.2159C96.8229 21.5758 97.1146 22.0341 97.3267 22.5909C97.5388 23.1439 97.6449 23.803 97.6449 24.5682V25.1989H90.4915V23.8125H95.6733C95.6695 23.4186 95.5843 23.0682 95.4176 22.7614C95.2509 22.4508 95.018 22.2064 94.7188 22.0284C94.4233 21.8504 94.0786 21.7614 93.6847 21.7614C93.2642 21.7614 92.8949 21.8636 92.5767 22.0682C92.2585 22.2689 92.0104 22.5341 91.8324 22.8636C91.6581 23.1894 91.5691 23.5473 91.5653 23.9375V25.1477C91.5653 25.6553 91.6581 26.0909 91.8438 26.4545C92.0294 26.8144 92.2888 27.0909 92.6222 27.2841C92.9555 27.4735 93.3456 27.5682 93.7926 27.5682C94.0919 27.5682 94.3627 27.5265 94.6051 27.4432C94.8475 27.3561 95.0578 27.2292 95.2358 27.0625C95.4138 26.8958 95.5483 26.6894 95.6392 26.4432L97.5597 26.6591C97.4384 27.1667 97.2074 27.6098 96.8665 27.9886C96.5294 28.3636 96.0975 28.6553 95.571 28.8636C95.0445 29.0682 94.4422 29.1705 93.7642 29.1705Z" fill="#403F3D"/>
</svg>
